<svg height="512" viewBox="0 0 60 60" width="512" xmlns="http://www.w3.org/2000/svg"><g id="b"><path d="m49.673 35.979c3.027.391 7.327-4.832 7.327-8.979 0-4-2-8-6-8s-6 2-6 2l-.231.231h-29.538l-.231-.231s-2-2-6-2-6 4-6 8 4 9 7 9z" fill="#a65a47"/><path d="m15.18 21.65v-.01c-.36-1.68-1.37-8.31 3.91-12.15.18-.13.35-.28.5-.44 1.54-1.76 5.95-6.36 11.22-8 .8-.25 1.51.56 1.21 1.36-.07.19-.13.39-.19.6-.47 1.78 1.46 3.23 2.99 2.25.88-.56 2.03-1.14 3.36-1.44.73-.16 1.39.56 1.18 1.29-.14.46-.24.99-.25 1.58-.02 1.03.55 1.96 1.39 2.52 5.75 3.79 4.68 10.74 4.32 12.44v.01z" fill="#a65a47"/><path d="m13.567 27.467c-.005 1.191-.388 2.383-1.12 3.211-.258.291-.553.55-.876.766-.763.511-1.717.588-2.404-.102-1.815-1.822-2.803-4.489-1.684-6.949.403-.886 1.091-1.405 2.081-1.392.918.011 1.869.404 2.569.991.975.817 1.44 2.146 1.434 3.476z" fill="#fdd7ad"/><path d="m47.867 23.991c.7-.587 1.651-.98 2.569-.991.991-.012 1.678.506 2.081 1.392 1.119 2.461.131 5.127-1.684 6.949-.687.69-1.641.613-2.404.102-.323-.216-.618-.475-.876-.766-.732-.828-1.115-2.02-1.12-3.211-.006-1.33.459-2.659 1.434-3.476z" fill="#fdd7ad"/><path d="m44.3 30.44c.4-1.42.7-3.19.7-5.36 0-4.444-.643-8.372-4-10.88 0 0-5.17-4.27-9.92-.91-.64.45-1.52.45-2.16 0-4.75-3.36-9.92.91-9.92.91-3.349 2.501-4 6.412-4 10.88 0 2.17.3 3.94.7 5.36z" fill="#f9c795"/><path d="m23.06 27.39c-2.73.65-5.22 1.7-7.36 3.05-2.41 1.51-4.36 3.41-5.7 5.56-1.28 2.06-2 4.35-2 6.77 0 8.96 9.85 16.23 22 16.23s22-7.27 22-16.23c0-2.42-.72-4.71-2-6.77-1.34-2.15-3.29-4.05-5.7-5.56-2.14-1.35-4.63-2.4-7.36-3.05z" fill="#fdd7ad"/><path d="m46.1 39.49c-.02-.81-.53-1.52-1.29-1.8-.48-.18-1.08-.39-1.81-.62-2.87-.92-7.57-2.07-13-2.07s-10.13 1.15-13 2.07c-.73.23-1.33.44-1.81.62-.76.28-1.27.99-1.29 1.8-.07 2.01.17 6.07 2.48 10.29.1.19.21.37.32.56.2.33.49.6.85.77 1.59.78 6.48 2.89 12.45 2.89s10.86-2.11 12.45-2.89c.36-.17.65-.44.85-.77.11-.19.22-.37.32-.56 2.31-4.22 2.55-8.28 2.48-10.29z" fill="#603e26"/><path d="m43 37.07c-.01.33 0 2.01-.22 3.74-.6-.48-2.36-1.61-4.78-.81 0 0-1-2-4-1 0 0-2-1-4 0-2-1-4 0-4 0-3-1-4 1-4 1-2.42-.8-4.18.33-4.78.81-.22-1.73-.21-3.41-.22-3.74 2.87-.92 7.57-2.07 13-2.07s10.13 1.15 13 2.07z" fill="#f09372"/><path d="m43.62 49.78c-.1.19-.21.37-.32.56-.2.33-.49.6-.85.77-1.59.78-6.48 2.89-12.45 2.89s-10.86-2.11-12.45-2.89c-.36-.17-.65-.44-.85-.77-.11-.19-.22-.37-.32-.56.21-.74.43-1.49.63-2.21.19.18 2.14 1.94 4.99.99 0 0 1 2 4 1 0 0 2 1 4 0 2 1 4 0 4 0 3 1 4-1 4-1 2.85.95 4.8-.81 4.99-.99.2.71.42 1.47.63 2.21z" fill="#f09372"/><path d="m42.78 40.81c-.13 1.18-.37 2.38-.78 3.19 0 0-6 1-12 1s-12-1-12-1c-.41-.81-.65-2.01-.78-3.19.6-.48 2.36-1.61 4.78-.81 0 0 1-2 4-1 0 0 2-1 4 0 2-1 4 0 4 0 3-1 4 1 4 1 2.42-.8 4.18.33 4.78.81z" fill="#fff"/><path d="m42.99 47.57c-.19.18-2.14 1.94-4.99.99 0 0-1 2-4 1 0 0-2 1-4 0-2 1-4 0-4 0-3 1-4-1-4-1-2.85.95-4.8-.81-4.99-.99.55-1.95.99-3.57.99-3.57s6 1 12 1 12-1 12-1 .44 1.62.99 3.57z" fill="#ecf0f1"/><path d="m33.597 31c.266 0 .535-.047.779-.154 1.605-.703 2.624-1.785 2.624-3 0-2.125-3.13-3.846-7-3.846s-7 1.721-7 3.846c0 1.215 1.019 2.298 2.624 3 .244.107.513.154.779.154h7.193z" fill="#f09372"/><path d="m28 29h-1c-.552 0-1-.448-1-1s.448-1 1-1h1c.552 0 1 .448 1 1s-.448 1-1 1z" fill="#c03a2b"/><path d="m33 29h-1c-.552 0-1-.448-1-1s.448-1 1-1h1c.552 0 1 .448 1 1s-.448 1-1 1z" fill="#c03a2b"/><path d="m42.78 15.33c-4.41-.52-12.78.22-12.78 5 0-4.78-8.37-5.52-12.78-5-8.92 1.27-6.3 15.07-1.46 15.07 2.13-1.33 4.59-2.37 7.3-3.01.35-1.69 2.71-3.05 5.75-3.33.38-.04.78-.06 1.19-.06s.81.02 1.19.06c3.04.28 5.4 1.64 5.75 3.33 2.71.64 5.17 1.68 7.3 3.01 4.84 0 7.46-13.8-1.46-15.07z" fill="#35495e"/><g fill="#547580"><path d="m15.999 21c-.256 0-.512-.098-.707-.293-.391-.391-.391-1.023 0-1.414l1-1c.391-.391 1.023-.391 1.414 0s.391 1.023 0 1.414l-1 1c-.195.195-.451.293-.707.293z"/><path d="m17 24.999c-.256 0-.512-.098-.707-.293-.391-.391-.391-1.023 0-1.414l4.999-4.999c.391-.391 1.023-.391 1.414 0s.391 1.023 0 1.414l-4.999 4.999c-.195.195-.451.293-.707.293z"/><path d="m38.001 21c-.256 0-.512-.098-.707-.293-.391-.391-.391-1.023 0-1.414l1-1c.391-.391 1.023-.391 1.414 0s.391 1.023 0 1.414l-1 1c-.195.195-.451.293-.707.293z"/><path d="m39.001 25c-.256 0-.512-.098-.707-.293-.391-.391-.391-1.023 0-1.414l5-5c.391-.391 1.023-.391 1.414 0s.391 1.023 0 1.414l-5 5c-.195.195-.451.293-.707.293z"/></g></g></svg>